<?xml version="1.0" standalone="no"?>
<!DOCTYPE svg PUBLIC "-//W3C//DTD SVG 20010904//EN"
 "http://www.w3.org/TR/2001/REC-SVG-20010904/DTD/svg10.dtd">
<svg version="1.0" xmlns="http://www.w3.org/2000/svg"
 width="1080.000000pt" height="1080.000000pt" viewBox="0 0 1080.000000 1080.000000"
 preserveAspectRatio="xMidYMid meet">
<metadata>
Created by potrace 1.14, written by Peter Selinger 2001-2017
</metadata>
<g transform="translate(0.000000,1080.000000) scale(0.100000,-0.100000)"
fill="#000000" stroke="none">
<path d="M130 5400 l0 -5270 5270 0 5270 0 0 5270 0 5270 -5270 0 -5270 0 0
-5270z m5412 4873 c45 -50 68 -91 68 -121 0 -17 -4 -34 -10 -37 -5 -3 -10 -17
-10 -30 0 -13 -4 -27 -10 -30 -5 -3 -10 -16 -10 -29 0 -13 -9 -31 -20 -41 -11
-10 -20 -28 -20 -41 0 -13 -4 -26 -10 -29 -14 -8 -13 -38 2 -53 16 -16 38 3
38 34 0 66 76 156 147 177 41 11 122 -2 159 -26 40 -27 74 -76 74 -108 0 -37
-54 -116 -84 -121 -28 -6 -47 8 -39 28 5 14 -32 83 -51 96 -31 22 -116 -4
-136 -41 -17 -33 -13 -71 9 -71 48 0 48 -56 0 -84 -31 -18 -35 -32 -16 -57 18
-22 39 -28 78 -20 29 6 35 11 39 41 3 23 11 36 23 38 9 2 17 -3 17 -10 0 -8
13 -27 30 -43 29 -28 30 -28 50 -10 15 14 21 30 19 55 -1 19 2 45 6 58 6 19
14 23 44 20 l36 -3 3 -76 c3 -71 5 -78 37 -109 33 -32 57 -33 54 -2 -3 37 2
52 22 63 19 9 26 6 57 -25 48 -50 77 -46 78 9 3 75 3 75 29 75 17 0 29 9 40
29 15 29 14 31 -18 55 -46 35 -75 33 -121 -10 -42 -38 -46 -37 -64 18 -11 31
-11 42 2 66 22 42 39 53 98 59 107 11 158 -37 158 -149 0 -42 4 -58 14 -58 9
0 16 17 19 48 4 26 9 70 12 97 4 28 11 60 17 71 12 25 48 44 83 44 32 0 33
-32 5 -75 -11 -16 -20 -35 -20 -42 0 -12 -82 -185 -116 -248 -28 -50 -34 -64
-34 -82 0 -10 -9 -29 -20 -43 -11 -14 -20 -39 -20 -57 0 -17 -5 -35 -10 -38
-6 -3 -8 -16 -5 -28 12 -52 41 -50 -717 -49 -470 1 -717 -3 -745 -10 -62 -15
-89 5 -98 72 -4 27 -11 52 -16 56 -5 3 -9 13 -9 23 0 13 -76 172 -137 286 -6
11 -15 31 -21 45 -9 25 -47 108 -64 142 -18 39 -10 51 30 43 57 -10 82 -30 83
-68 1 -52 24 -150 37 -155 7 -2 12 7 12 22 0 13 5 28 10 31 6 3 10 17 10 30 0
31 53 83 88 87 15 2 49 0 76 -3 86 -10 123 -90 73 -153 l-24 -29 -33 46 c-35
49 -49 56 -72 35 -7 -7 -25 -19 -40 -27 -15 -8 -30 -22 -33 -32 -8 -23 22 -69
40 -63 19 8 30 -15 30 -61 0 -38 2 -40 34 -43 38 -4 51 9 51 51 0 31 6 33 48
12 19 -10 36 -29 44 -50 6 -19 17 -35 24 -35 7 0 24 21 39 48 24 42 25 51 15
83 -18 52 -1 79 48 79 33 0 39 -4 49 -30 7 -17 7 -32 2 -36 -15 -9 -10 -50 9
-66 33 -29 40 -28 67 12 33 48 55 52 55 10 0 -24 6 -33 26 -40 39 -15 62 -12
85 11 26 26 21 51 -11 59 -38 9 -40 62 -5 93 23 19 25 26 16 48 -21 57 -101
88 -143 55 -21 -15 -38 -58 -38 -92 0 -14 -7 -27 -16 -31 -29 -11 -59 14 -88
72 -26 54 -27 58 -12 89 28 60 90 96 169 99 63 2 113 -19 156 -68 26 -30 31
-44 31 -89 0 -46 3 -54 25 -66 16 -8 29 -10 34 -4 12 12 -3 104 -23 143 -9 16
-16 36 -16 44 0 8 -9 22 -20 32 -11 10 -19 23 -17 29 2 6 -2 21 -9 35 -11 20
-10 29 2 52 8 15 14 35 14 42 0 8 16 29 35 46 45 39 83 40 117 4z m593 -1022
c8 -17 27 -38 40 -47 26 -17 32 -38 15 -49 -12 -7 -1332 -13 -1379 -5 -45 7
-50 25 -12 45 18 9 31 23 31 35 0 10 6 22 13 27 6 4 221 9 477 11 255 2 465 4
466 5 2 1 77 3 168 5 l165 3 16 -30z m-1205 -236 c13 -15 9 -128 -6 -182 -5
-19 -2 -23 19 -23 13 0 30 7 37 15 7 8 25 15 41 15 15 0 31 5 34 10 9 14 81
12 108 -2 12 -7 23 -14 25 -15 11 -5 -33 -53 -56 -61 -74 -28 -122 -35 -151
-22 -22 9 -34 9 -50 0 -29 -15 -27 -40 2 -40 13 0 32 -9 42 -20 10 -11 24 -20
30 -20 14 0 65 -73 65 -94 0 -19 -22 -26 -80 -26 -51 0 -126 35 -180 85 -36
33 -63 38 -109 19 -40 -16 -67 -45 -54 -58 3 -3 21 -6 40 -6 18 0 33 -4 33 -8
0 -4 15 -16 33 -26 35 -21 87 -66 87 -77 0 -7 -68 -33 -113 -43 -17 -4 -41 1
-67 13 -23 11 -54 22 -69 26 -16 3 -38 17 -50 30 -11 14 -25 25 -30 25 -16 0
-121 -74 -121 -86 0 -15 23 -24 60 -24 16 0 42 -5 57 -11 80 -33 113 -50 113
-58 0 -14 -64 -51 -87 -51 -10 0 -24 -5 -30 -11 -13 -13 -97 0 -183 28 -24 8
-55 11 -69 8 -33 -8 -81 -59 -81 -86 0 -19 4 -20 54 -14 51 7 74 3 159 -28 41
-14 34 -41 -20 -78 -46 -32 -51 -33 -138 -31 -49 1 -103 7 -119 14 -27 11 -31
9 -67 -30 -38 -40 -49 -74 -29 -87 6 -4 18 -1 26 6 22 18 186 18 207 1 15 -13
14 -17 -8 -51 -15 -21 -39 -42 -59 -49 -18 -7 -41 -21 -51 -32 -15 -17 -31
-20 -109 -21 -88 0 -92 -1 -114 -29 -15 -19 -22 -40 -20 -57 3 -24 7 -28 31
-25 15 2 42 12 60 22 40 25 144 28 153 5 10 -26 -89 -145 -121 -145 -8 0 -16
-4 -19 -9 -3 -5 -23 -11 -43 -15 -142 -21 -143 -22 -143 -83 0 -56 13 -61 78
-28 40 20 131 44 170 45 11 0 -3 -56 -24 -98 -33 -66 -69 -93 -166 -122 -68
-21 -79 -27 -93 -57 -17 -36 -14 -63 11 -84 13 -10 19 -8 40 14 13 14 41 33
61 43 21 9 47 20 58 25 11 5 34 11 50 12 29 2 30 0 29 -38 -1 -54 -32 -119
-66 -140 -16 -9 -28 -20 -28 -25 0 -11 -84 -60 -103 -60 -8 0 -20 -14 -26 -31
-8 -24 -7 -35 5 -55 9 -13 19 -24 23 -24 12 0 37 24 54 53 10 15 23 27 31 27
7 0 21 9 31 20 10 11 28 20 41 20 13 0 26 5 29 10 27 43 36 -82 10 -143 -16
-39 -82 -112 -127 -141 -30 -20 -36 -49 -16 -91 11 -25 38 -35 38 -15 0 14 40
70 65 91 11 10 35 31 54 47 18 17 39 28 46 26 17 -7 25 -78 16 -145 -8 -59
-48 -134 -96 -179 -14 -13 -25 -32 -25 -42 0 -22 28 -68 41 -68 10 0 39 65 39
89 0 10 11 27 23 38 13 11 31 30 39 41 42 61 94 10 105 -101 6 -73 -3 -96 -69
-179 -37 -45 -48 -78 -28 -78 6 0 10 -5 10 -11 0 -13 38 -49 51 -49 14 0 28
36 23 57 -3 11 4 39 15 61 12 23 21 47 21 54 1 17 46 68 61 68 16 0 52 -48 66
-90 17 -47 16 -97 -3 -145 -8 -22 -17 -48 -21 -57 -3 -10 -9 -18 -13 -18 -11
0 -27 -51 -23 -70 3 -13 74 -50 96 -50 4 0 7 37 6 82 -1 65 2 84 15 94 9 6 14
18 11 25 -2 8 4 25 15 39 l20 25 49 -50 c35 -35 50 -58 51 -77 0 -15 5 -30 10
-33 16 -10 11 -58 -10 -100 -21 -42 -26 -105 -10 -135 10 -18 59 -40 90 -40
15 0 16 8 12 53 -2 28 -8 56 -13 61 -21 23 -2 166 21 166 20 0 130 -106 130
-126 0 -11 6 -26 13 -33 8 -8 12 -45 12 -111 0 -60 4 -103 11 -110 6 -6 29
-10 50 -8 34 3 39 6 37 26 -2 12 -13 36 -24 52 -28 37 -36 145 -13 171 13 14
20 15 46 5 18 -6 42 -21 54 -33 13 -13 28 -23 34 -23 5 0 10 -5 10 -11 0 -5
13 -27 29 -47 18 -23 31 -54 35 -82 3 -25 9 -63 13 -85 9 -41 16 -46 107 -60
16 -2 34 -9 40 -15 5 -5 18 -10 28 -10 10 0 18 -4 18 -8 0 -5 26 -15 58 -22
31 -7 62 -17 67 -21 24 -17 94 -20 127 -6 72 31 90 37 113 37 13 0 27 5 30 10
3 6 14 10 24 10 10 0 32 7 47 15 16 8 42 15 58 15 47 0 66 25 66 86 0 61 49
176 89 209 36 30 107 55 120 42 6 -6 11 -47 11 -91 0 -62 -5 -88 -19 -113 -18
-28 -18 -33 -5 -44 11 -9 23 -10 42 -3 27 9 27 11 30 109 3 131 27 182 115
249 40 31 47 32 47 8 0 -10 5 -23 10 -28 6 -6 11 -35 13 -66 2 -50 -1 -59 -25
-82 -30 -27 -36 -46 -14 -46 7 0 19 -7 26 -15 10 -13 17 -12 52 6 l39 20 -7
47 c-4 26 -10 56 -13 67 -16 49 3 161 30 178 11 7 19 18 19 25 0 16 50 61 68
62 6 0 12 -7 12 -15 0 -9 9 -25 20 -37 12 -13 20 -37 21 -57 1 -20 2 -60 3
-90 0 -31 6 -56 13 -58 6 -2 28 12 48 31 l37 36 -21 26 c-43 55 -62 189 -37
259 33 89 68 118 86 71 5 -14 14 -26 19 -26 14 0 41 -59 41 -89 0 -14 7 -34
14 -44 7 -9 11 -28 8 -42 -7 -39 13 -30 47 21 36 52 35 49 18 66 -7 7 -29 35
-50 62 -35 47 -37 52 -37 125 1 68 4 79 28 108 21 25 33 31 51 26 28 -7 111
-119 111 -150 0 -33 26 -29 44 8 13 27 14 35 1 58 -7 15 -21 34 -30 41 -9 8
-30 33 -46 56 -24 36 -29 55 -34 126 -6 104 6 131 50 108 15 -8 30 -21 33 -30
5 -16 30 -45 75 -88 15 -15 27 -34 27 -44 0 -27 18 -21 35 12 18 35 19 66 3
79 -89 71 -135 119 -150 160 -19 50 -23 118 -9 140 13 20 49 8 93 -31 115
-102 133 -108 140 -50 6 49 4 54 -40 77 -20 11 -41 25 -45 32 -4 7 -13 13 -19
13 -39 0 -128 118 -115 153 2 7 0 20 -5 31 -26 50 63 35 142 -23 51 -38 80
-52 90 -46 14 9 12 101 -2 112 -7 6 -38 16 -68 24 -30 7 -63 19 -73 27 -9 9
-27 20 -39 26 -11 6 -26 20 -32 31 -6 11 -19 32 -28 47 -10 14 -18 40 -18 57
0 30 2 31 41 31 22 0 55 -7 72 -16 18 -9 41 -21 52 -27 11 -6 27 -15 36 -20
26 -16 52 -1 46 26 -3 12 -10 38 -14 57 l-9 34 -93 13 c-83 12 -98 18 -138 51
-53 44 -88 103 -70 121 6 6 37 11 70 11 44 0 69 -6 104 -26 25 -14 52 -23 59
-20 23 9 16 46 -16 86 -28 36 -33 38 -63 29 -50 -14 -102 -11 -128 9 -13 10
-43 24 -66 32 -30 9 -50 24 -68 51 -14 21 -25 43 -25 48 0 19 60 29 145 24 98
-6 113 2 90 46 -25 50 -46 61 -90 49 -22 -6 -74 -13 -115 -15 -72 -4 -78 -3
-125 29 -27 18 -51 40 -52 48 -1 8 11 25 27 38 26 20 43 24 117 25 58 1 88 6
90 14 6 16 -64 81 -94 89 -11 3 -30 1 -41 -5 -12 -6 -36 -11 -56 -11 -19 0
-38 -4 -41 -10 -11 -18 -123 -12 -165 10 -21 11 -41 24 -44 29 -14 22 73 67
149 76 31 4 58 12 61 17 7 11 -73 87 -92 88 -5 0 -35 -12 -65 -26 -78 -39
-116 -48 -188 -46 -73 2 -86 10 -78 44 7 24 116 89 150 88 29 0 19 33 -16 58
-45 30 -82 28 -115 -6 -15 -16 -48 -38 -74 -50 -25 -12 -49 -26 -53 -32 -3 -5
-29 -10 -57 -10 -63 0 -84 20 -62 61 14 29 69 79 85 79 6 0 17 6 25 14 7 8 19
17 26 19 9 4 8 10 -6 21 -14 11 -41 16 -92 16 -39 0 -82 6 -96 13 -31 16 -82
56 -77 61 36 31 112 34 172 7 50 -23 107 -36 107 -24 0 4 -9 35 -19 68 -12 39
-16 66 -10 77 5 9 9 26 9 37 0 31 17 34 54 11 48 -29 86 -108 93 -193 6 -72
24 -97 67 -97 11 0 27 -7 37 -16 33 -30 49 -11 43 51 -4 31 -3 77 1 101 5 38
10 44 30 44 52 0 95 -41 95 -91 0 -10 5 -21 10 -24 11 -7 14 -78 3 -89 -11
-11 -14 -86 -4 -86 5 0 32 -16 61 -35 29 -19 56 -33 60 -30 5 3 12 31 16 62 8
63 23 98 52 118 17 13 22 11 44 -13 31 -33 53 -118 44 -170 -21 -120 -22 -118
25 -152 24 -17 49 -29 57 -28 8 2 23 26 32 55 16 50 51 92 77 93 24 0 76 -156
56 -168 -6 -4 -14 -23 -18 -42 -4 -19 -15 -50 -23 -67 -15 -31 -14 -34 6 -56
12 -13 22 -27 22 -31 0 -11 27 -36 39 -36 6 0 11 4 11 9 0 4 10 19 23 33 12
14 27 34 33 44 13 22 72 56 84 49 29 -18 37 -163 9 -180 -5 -4 -9 -14 -9 -24
0 -9 -13 -30 -30 -46 -33 -32 -38 -63 -15 -100 51 -84 45 -78 66 -59 10 9 19
21 19 25 0 14 64 79 78 79 7 0 21 5 32 12 26 17 31 9 33 -59 1 -47 -3 -66 -21
-90 -12 -17 -22 -37 -22 -45 0 -7 -16 -29 -36 -48 -46 -44 -51 -58 -44 -123 7
-69 28 -73 81 -18 22 23 47 41 57 41 9 0 31 9 49 19 17 11 34 17 37 14 10 -11
6 -86 -7 -131 -15 -49 -111 -148 -149 -154 -22 -3 -23 -8 -23 -77 0 -84 11
-97 46 -57 44 50 156 88 179 61 15 -18 0 -104 -20 -118 -9 -7 -25 -24 -34 -39
-18 -27 -67 -58 -92 -58 -25 0 -84 -42 -90 -64 -3 -13 -4 -40 -2 -62 3 -45 23
-54 53 -27 33 30 73 43 130 43 l55 0 0 -43 c0 -35 -5 -47 -30 -67 -16 -14 -30
-29 -30 -35 0 -6 -17 -18 -37 -28 -21 -10 -49 -24 -63 -32 -14 -8 -39 -15 -55
-15 -45 0 -70 -23 -85 -75 -18 -66 -7 -74 70 -45 57 21 65 22 116 10 62 -15
66 -27 28 -77 -24 -32 -109 -83 -138 -83 -7 0 -16 -6 -19 -14 -4 -10 -22 -12
-70 -10 -67 4 -97 -9 -97 -40 0 -8 -7 -19 -15 -26 -8 -7 -15 -23 -15 -36 0
-27 21 -31 78 -15 43 13 151 -6 177 -30 19 -18 19 -19 -15 -50 -37 -33 -101
-69 -122 -69 -7 0 -26 -7 -41 -15 -25 -13 -35 -13 -85 1 -31 9 -65 16 -75 16
-23 -1 -84 -62 -89 -88 -3 -17 6 -20 77 -26 44 -3 91 -12 105 -18 50 -22 80
-41 80 -50 0 -13 -64 -60 -81 -60 -8 0 -29 -9 -47 -20 -50 -30 -130 -27 -227
10 -48 19 -53 18 -94 -24 -22 -23 -41 -44 -41 -48 0 -10 32 -19 84 -24 67 -6
176 -66 176 -97 0 -7 -21 -23 -47 -37 -40 -21 -60 -25 -138 -25 -79 0 -95 3
-130 26 -22 14 -55 29 -73 32 -45 9 -125 -10 -152 -35 -22 -20 -22 -22 -4 -35
10 -7 42 -13 71 -13 29 0 53 -4 53 -9 0 -5 16 -16 35 -26 43 -20 105 -73 105
-89 0 -21 -64 -36 -152 -36 -93 0 -135 13 -183 55 -60 53 -67 56 -133 47 -70
-10 -76 -13 -68 -39 5 -17 25 -30 101 -64 36 -16 94 -73 114 -111 23 -44 3
-58 -85 -58 -61 0 -81 4 -116 25 -24 14 -50 28 -59 31 -9 3 -21 14 -25 23 -5
9 -30 37 -57 61 l-47 43 -66 -7 c-37 -4 -93 -18 -125 -31 -32 -14 -65 -25 -73
-25 -28 0 -66 -23 -66 -40 0 -9 15 -22 35 -30 20 -8 43 -22 52 -32 9 -10 22
-18 28 -18 18 0 95 -77 95 -95 0 -8 -13 -21 -29 -29 -27 -14 -31 -13 -80 20
-29 18 -54 34 -56 34 -2 0 -21 16 -42 35 -21 19 -46 35 -55 35 -9 0 -21 6 -25
13 -14 24 -51 26 -77 6 -13 -10 -28 -19 -33 -19 -5 0 -20 -12 -34 -26 -13 -14
-36 -32 -51 -40 -15 -8 -38 -24 -52 -37 -61 -56 -64 -56 -95 -24 -24 27 -20
52 10 60 10 3 19 12 19 19 0 8 12 20 26 27 15 6 46 27 69 46 23 19 49 35 58
35 49 0 15 46 -41 56 -20 3 -59 16 -87 29 -54 25 -150 41 -188 31 -13 -3 -43
-30 -67 -60 -24 -30 -55 -60 -69 -67 -14 -7 -36 -21 -47 -32 -17 -14 -40 -18
-112 -20 -115 -3 -126 6 -87 65 53 82 102 118 161 118 25 0 49 32 41 54 -6 15
-80 36 -125 36 -18 0 -43 -13 -70 -35 -78 -67 -166 -89 -284 -70 -73 11 -79
27 -27 76 40 36 134 89 159 89 6 0 19 -5 29 -12 15 -9 23 -9 35 1 22 19 20 24
-14 44 -16 10 -30 24 -30 32 0 9 -17 16 -45 20 -34 6 -52 3 -82 -13 -21 -11
-54 -28 -73 -37 -19 -10 -42 -21 -50 -25 -23 -11 -175 18 -215 42 l-38 21 34
29 c42 35 134 79 174 83 17 2 33 3 38 4 4 1 7 12 7 27 0 19 -7 28 -30 35 -16
6 -30 15 -30 20 0 14 -62 10 -94 -6 -15 -8 -41 -15 -57 -15 -15 0 -31 -4 -34
-10 -8 -12 -59 -13 -83 -1 -9 5 -30 15 -47 22 -57 26 -105 59 -105 74 0 8 7
15 15 15 8 0 34 11 57 24 24 13 74 29 112 34 38 6 73 15 78 20 5 5 -6 25 -26
46 l-35 36 -94 -6 c-93 -7 -93 -6 -170 30 -73 35 -126 84 -113 105 8 12 106
25 186 26 73 0 75 4 47 80 l-15 40 -69 1 c-86 1 -126 10 -149 35 -9 10 -23 19
-30 19 -16 0 -82 65 -85 82 -4 36 1 38 97 38 52 0 104 -5 114 -10 11 -6 21 -6
24 -1 9 14 -14 112 -27 115 -7 2 -38 8 -70 14 -58 11 -93 33 -160 99 -32 31
-56 82 -49 101 8 23 112 15 170 -14 28 -14 56 -23 62 -19 29 18 -3 135 -38
135 -9 0 -28 9 -42 20 -14 11 -30 20 -37 20 -20 0 -103 88 -103 109 0 11 -4
23 -10 26 -5 3 -9 20 -7 38 2 23 7 32 20 31 9 0 35 -1 57 -2 24 -1 40 -7 40
-14 0 -7 21 -26 46 -41 58 -35 74 -25 74 43 0 53 -28 100 -60 100 -11 0 -27
11 -37 25 -10 14 -33 42 -50 62 -30 33 -33 43 -33 100 0 60 1 63 24 63 14 0
28 -4 31 -10 3 -5 15 -10 26 -10 11 0 37 -18 58 -40 21 -22 44 -40 52 -40 18
0 39 54 39 97 0 21 -12 42 -41 73 -23 24 -48 60 -56 79 -9 20 -20 47 -26 61
-10 25 -10 69 -1 103 12 38 57 13 147 -82 29 -30 57 -32 57 -4 0 8 9 26 20 40
25 32 25 55 0 78 -11 10 -23 27 -26 39 -4 11 -18 38 -30 58 -17 26 -24 52 -24
86 0 40 5 53 30 77 l29 28 43 -45 c24 -25 53 -58 65 -74 l23 -29 28 33 c57 65
58 74 23 142 -17 34 -31 71 -31 83 0 40 40 147 56 147 19 0 53 -40 74 -86 25
-54 40 -61 84 -40 49 23 59 40 51 83 -4 21 -8 73 -10 115 -2 72 -1 80 27 118
16 22 34 40 38 40 13 0 50 -56 50 -75 0 -9 7 -38 16 -66 19 -59 35 -62 90 -18
52 41 57 52 41 91 -19 47 13 158 60 205 38 37 41 38 67 18 17 -13 20 -28 20
-105 1 -78 3 -90 18 -90 9 0 20 5 23 10 3 6 15 10 26 10 11 0 31 7 45 16 22
15 24 21 18 65 -5 39 -3 53 15 77 11 17 21 39 21 50 0 30 80 110 111 112 4 0
12 -7 19 -15z m550 -902 c72 -3 173 0 237 7 99 11 114 10 128 -3 8 -9 15 -23
15 -32 0 -21 -39 -54 -65 -55 -11 0 -27 -6 -35 -13 -40 -32 -42 -57 -46 -517
-4 -603 -13 -888 -29 -979 -15 -82 -59 -184 -94 -215 -11 -11 -21 -25 -21 -32
0 -7 -4 -14 -9 -16 -10 -4 -60 -42 -106 -80 -18 -16 -37 -28 -42 -28 -5 0 -26
-9 -48 -20 -22 -11 -49 -20 -62 -20 -12 0 -25 -5 -28 -10 -4 -7 -12 -7 -25 0
-10 5 -28 10 -40 10 -12 0 -35 14 -52 30 -26 26 -29 35 -23 68 10 58 31 116
47 126 24 15 67 -2 111 -44 22 -22 49 -40 59 -40 43 0 111 100 122 180 7 52 9
576 4 1125 -3 351 -4 382 -22 411 -20 34 -77 64 -119 64 -23 0 -96 38 -96 50
-1 3 14 15 32 27 21 15 40 21 57 17 14 -3 81 -8 150 -11z m616 -3414 c11 -9
14 -44 14 -155 0 -133 -1 -144 -20 -154 -14 -7 -155 -9 -446 -7 -496 5 -569 0
-626 -40 -104 -72 -97 -245 12 -323 25 -18 52 -20 351 -23 181 -2 346 -9 374
-15 28 -6 64 -14 80 -17 31 -7 66 -20 100 -38 11 -6 34 -17 50 -26 70 -35 173
-188 189 -281 3 -19 10 -55 15 -79 15 -76 -18 -240 -61 -301 -10 -13 -18 -31
-18 -39 0 -17 -85 -110 -122 -133 -15 -10 -36 -26 -48 -38 -11 -11 -28 -20
-38 -20 -10 0 -27 -6 -38 -14 -30 -22 -114 -25 -676 -31 l-508 -5 -1 37 c-1
89 1 286 4 289 2 2 221 4 487 4 369 1 499 5 543 15 100 23 131 54 149 153 10
54 9 63 -11 103 -26 54 -60 80 -120 92 -25 6 -197 11 -381 14 -326 3 -336 4
-385 27 -27 12 -66 30 -86 39 -51 22 -148 115 -187 180 -66 109 -97 241 -80
337 20 114 72 228 132 285 41 40 166 115 190 115 14 0 28 5 31 10 3 6 21 10
40 10 19 0 37 5 40 10 3 6 30 10 58 10 29 0 58 4 66 9 22 14 910 14 927 0z
m643 -18 c12 -16 21 -36 21 -44 0 -8 8 -25 18 -38 10 -13 24 -37 31 -54 7 -16
17 -37 22 -45 5 -8 14 -26 20 -40 7 -14 36 -77 66 -140 30 -63 60 -126 66
-140 7 -14 14 -27 18 -30 3 -3 20 -36 38 -75 19 -38 37 -72 40 -75 4 -3 13
-21 21 -40 7 -19 24 -51 37 -70 13 -19 23 -39 23 -43 0 -14 40 -67 51 -67 14
0 49 62 49 88 0 12 10 39 23 60 19 30 66 116 158 292 26 48 143 298 168 356
21 50 35 70 50 72 15 2 52 -28 136 -111 63 -62 115 -121 115 -131 0 -9 -11
-34 -25 -56 -14 -22 -25 -46 -25 -54 0 -7 -7 -19 -15 -26 -9 -7 -22 -29 -31
-49 -9 -20 -20 -43 -25 -51 -24 -38 -49 -97 -49 -116 0 -11 -11 -31 -25 -44
-14 -13 -28 -39 -31 -59 -4 -20 -12 -43 -19 -51 -20 -24 -71 -131 -85 -177 -7
-23 -20 -50 -29 -60 -21 -23 -41 -69 -41 -93 0 -10 -4 -20 -8 -22 -10 -4 -52
-76 -52 -89 0 -6 -11 -25 -25 -43 -14 -18 -25 -38 -25 -45 0 -11 -89 -189
-108 -216 -5 -5 -14 -28 -21 -50 -23 -72 -52 -126 -64 -123 -13 5 -26 30 -78
143 -17 39 -36 79 -42 90 -54 101 -99 193 -128 260 -19 44 -49 105 -67 135
-18 30 -35 65 -38 78 -4 12 -10 22 -15 22 -5 0 -9 6 -9 14 0 19 -159 326 -181
350 -5 6 -9 19 -9 29 0 10 -9 30 -20 44 -11 14 -20 33 -21 42 0 9 -11 34 -24
56 -13 22 -33 60 -45 85 -11 25 -24 53 -30 63 -11 18 -15 27 -47 92 -25 50
-72 134 -89 160 -8 11 -14 30 -14 42 l0 23 184 0 185 0 20 -29z m1621 19 c12
-8 16 -50 18 -237 3 -225 -1 -293 -17 -293 -4 0 -81 72 -171 160 -89 88 -170
162 -179 165 -9 2 -22 18 -29 34 -7 17 -22 33 -32 36 -10 3 -31 22 -46 43 -15
20 -34 40 -40 45 -25 15 -44 39 -38 48 7 12 515 11 534 -1z m-4683 -31 c40
-11 86 -19 102 -19 17 0 33 -5 36 -10 4 -6 44 -28 88 -49 45 -21 103 -54 130
-74 26 -21 51 -37 56 -37 25 0 171 -191 210 -275 67 -147 82 -212 84 -382 l2
-148 -45 -6 c-25 -3 -333 -7 -684 -7 -397 -1 -643 -5 -649 -11 -15 -15 10 -92
51 -154 39 -57 109 -122 152 -139 87 -35 128 -48 157 -48 17 0 44 -5 60 -11
19 -8 155 -11 417 -11 326 1 392 -2 411 -14 22 -14 22 -20 22 -160 0 -79 -4
-147 -8 -150 -4 -2 -185 -5 -402 -4 -299 0 -421 3 -508 15 -63 9 -123 19 -134
24 -11 5 -39 14 -61 20 -87 23 -291 181 -367 283 -50 66 -118 210 -144 303
-18 64 -19 340 -2 393 32 96 83 230 98 257 63 113 253 292 352 331 24 10 58
28 75 41 17 13 41 23 53 23 12 0 54 9 94 19 39 11 88 21 107 23 61 7 173 -4
247 -23z m4420 -406 c73 -81 106 -112 122 -118 10 -3 24 -17 31 -31 8 -14 27
-33 42 -42 15 -9 28 -21 28 -27 0 -7 11 -22 24 -34 13 -13 27 -38 30 -56 9
-44 10 -927 2 -953 -8 -25 -35 -28 -201 -28 l-130 1 -1 640 c-1 363 3 648 8
658 12 23 16 22 45 -10z m-4433 -1828 c0 -55 -2 -131 -3 -170 0 -38 0 -128 2
-200 2 -71 -1 -138 -5 -147 -6 -12 -20 -18 -44 -18 -43 0 -49 14 -59 133 -6
70 -11 87 -25 92 -25 8 -221 13 -281 7 -58 -5 -60 -11 -61 -118 0 -96 -6 -134
-23 -134 -7 0 -15 -4 -17 -9 -1 -4 -13 -12 -25 -15 -38 -12 -44 26 -43 284 0
129 -2 252 -5 274 -7 52 7 66 67 66 l49 0 -1 -52 c-1 -29 -1 -81 0 -115 l2
-63 31 -2 c60 -2 312 4 320 9 4 2 7 48 7 101 1 107 10 132 56 162 53 34 59 26
58 -85z m2570 56 c11 -17 -24 -89 -47 -96 -12 -4 -121 -8 -241 -10 -168 -3
-221 -6 -227 -17 -10 -15 -1 -88 14 -105 7 -10 65 -13 229 -13 l219 0 -3 -52
-3 -53 -207 -2 c-113 0 -215 -4 -227 -8 -25 -8 -32 -30 -23 -75 l8 -35 227 -3
227 -2 0 -50 c0 -27 -4 -51 -10 -55 -18 -11 -541 -8 -552 3 -7 7 -13 108 -15
284 l-5 273 28 10 c38 13 600 19 608 6z m357 -3 c1 -7 0 -106 -1 -219 -1 -136
2 -214 9 -228 11 -20 18 -20 236 -19 123 2 227 -1 231 -5 4 -3 8 -22 10 -41 6
-66 4 -66 -294 -66 -147 0 -273 4 -280 8 -10 7 -14 73 -19 270 -3 144 -3 273
1 287 6 23 11 25 56 25 33 0 50 -4 51 -12z m1330 -22 c5 -16 4 -37 -2 -48 -9
-17 -25 -18 -208 -18 -118 0 -211 -4 -230 -11 -28 -10 -31 -15 -31 -55 0 -66
15 -72 203 -78 153 -5 158 -6 193 -33 55 -44 78 -108 65 -180 -21 -111 -86
-132 -409 -131 -237 0 -244 3 -198 60 47 60 58 68 75 59 9 -5 96 -7 194 -5
201 3 230 11 235 60 5 50 -12 56 -175 60 -131 4 -154 8 -199 29 -64 31 -80 49
-95 107 -10 36 -10 55 -1 85 15 47 73 113 100 113 12 0 24 5 27 10 4 7 85 9
227 8 l222 -3 7 -29z m-2600 -14 c5 -27 2 -37 -15 -53 -18 -18 -32 -20 -112
-17 -66 2 -96 -1 -108 -11 -18 -15 -21 -46 -6 -56 7 -4 7 -13 0 -24 -6 -12 -5
-22 3 -30 9 -9 9 -16 -1 -32 -8 -13 -10 -25 -4 -32 15 -20 12 -258 -4 -288
-12 -24 -67 -59 -93 -59 -8 0 -11 79 -11 265 l0 265 -84 0 c-114 0 -145 7
-152 36 -3 12 -3 32 1 43 7 23 48 26 390 26 l189 0 7 -33z m-1027 19 c3 -5 26
-18 51 -30 71 -33 121 -90 134 -150 32 -149 -7 -257 -122 -345 -33 -25 -49
-30 -115 -33 -42 -2 -104 2 -136 9 -55 12 -64 18 -112 75 -42 49 -55 73 -64
120 -26 123 -6 204 73 282 66 66 98 79 199 80 48 1 89 -3 92 -8z"/>
<path d="M4612 9759 c2 -7 10 -15 17 -17 8 -3 12 1 9 9 -2 7 -10 15 -17 17 -8
3 -12 -1 -9 -9z"/>
<path d="M5525 9720 c-15 -16 -16 -25 -7 -43 6 -12 13 -38 16 -58 4 -21 18
-47 35 -63 25 -24 32 -26 50 -17 30 17 26 39 -15 79 -28 28 -35 41 -32 63 3
19 -1 34 -12 44 -15 14 -19 13 -35 -5z"/>
<path d="M5416 9708 c-9 -12 -16 -37 -16 -55 0 -25 -7 -36 -30 -50 -33 -19
-39 -43 -15 -63 20 -17 40 -7 57 27 8 15 19 37 25 48 26 49 35 74 31 91 -5 27
-34 29 -52 2z"/>
<path d="M5861 9620 c-36 -35 -37 -37 -10 -69 16 -20 28 -24 66 -22 72 2 94
45 48 95 -32 34 -65 33 -104 -4z"/>
<path d="M5012 9628 c-23 -12 -33 -36 -29 -78 2 -20 9 -26 42 -33 25 -5 50 -5
68 2 23 9 27 16 27 49 0 63 -47 89 -108 60z"/>
<path d="M4680 9601 c0 -5 17 -25 37 -45 35 -33 79 -47 96 -30 8 8 -31 39 -60
48 -11 4 -27 13 -33 21 -14 16 -40 20 -40 6z"/>
<path d="M6245 9588 c-11 -16 -12 -24 -4 -27 12 -4 39 25 39 41 0 16 -19 8
-35 -14z"/>
<path d="M6182 9551 c-13 -3 -24 -10 -25 -16 -3 -16 39 -17 52 -1 15 18 4 25
-27 17z"/>
<path d="M3420 4359 c-30 -5 -66 -15 -80 -23 -14 -7 -43 -19 -65 -26 -50 -16
-158 -96 -180 -132 -8 -15 -22 -34 -30 -41 -26 -27 -55 -82 -55 -107 0 -17 8
-29 25 -36 13 -7 26 -9 29 -7 6 7 255 11 652 12 240 1 293 3 297 15 6 15 -35
100 -64 132 -11 11 -19 24 -19 30 0 14 -68 67 -125 98 -27 15 -54 32 -60 37
-5 5 -19 9 -31 9 -13 0 -25 4 -28 9 -17 27 -175 45 -266 30z"/>
<path d="M4160 2382 c-38 -6 -107 -61 -122 -96 -27 -65 -33 -122 -17 -154 45
-90 81 -112 184 -112 59 0 75 4 90 20 10 11 24 20 30 20 18 0 55 92 55 137 0
79 -81 176 -155 185 -22 3 -51 3 -65 0z"/>
</g>
</svg>
